<svg id="visual" viewBox="0 0 600 900" width="600" height="900" xmlns="http://www.w3.org/2000/svg" xmlns:xlink="http://www.w3.org/1999/xlink" version="1.1"><rect x="0" y="0" width="600" height="900" fill="#202F4B"></rect><path d="M0 772L12.5 777.3C25 782.7 50 793.3 75 801.8C100 810.3 125 816.7 150 811.7C175 806.7 200 790.3 225 784C250 777.7 275 781.3 300 788.3C325 795.3 350 805.7 375 806.7C400 807.7 425 799.3 450 800C475 800.7 500 810.3 525 808.7C550 807 575 794 587.5 787.5L600 781L600 901L587.5 901C575 901 550 901 525 901C500 901 475 901 450 901C425 901 400 901 375 901C350 901 325 901 300 901C275 901 250 901 225 901C200 901 175 901 150 901C125 901 100 901 75 901C50 901 25 901 12.5 901L0 901Z" fill="#8fc4e2"></path><path d="M0 836L12.5 836.3C25 836.7 50 837.3 75 835.2C100 833 125 828 150 823C175 818 200 813 225 809C250 805 275 802 300 804.5C325 807 350 815 375 822.3C400 829.7 425 836.3 450 835.8C475 835.3 500 827.7 525 828.7C550 829.7 575 839.3 587.5 844.2L600 849L600 901L587.5 901C575 901 550 901 525 901C500 901 475 901 450 901C425 901 400 901 375 901C350 901 325 901 300 901C275 901 250 901 225 901C200 901 175 901 150 901C125 901 100 901 75 901C50 901 25 901 12.5 901L0 901Z" fill="#b3e1ee"></path><path d="M0 866L12.5 861.8C25 857.7 50 849.3 75 846.7C100 844 125 847 150 852.2C175 857.3 200 864.7 225 865.3C250 866 275 860 300 855.5C325 851 350 848 375 850.7C400 853.3 425 861.7 450 859.5C475 857.3 500 844.7 525 841.7C550 838.7 575 845.3 587.5 848.7L600 852L600 901L587.5 901C575 901 550 901 525 901C500 901 475 901 450 901C425 901 400 901 375 901C350 901 325 901 300 901C275 901 250 901 225 901C200 901 175 901 150 901C125 901 100 901 75 901C50 901 25 901 12.5 901L0 901Z" fill="#dffcfd"></path></svg>