<svg id="visual" viewBox="0 0 960 540" width="960" height="540" xmlns="http://www.w3.org/2000/svg" xmlns:xlink="http://www.w3.org/1999/xlink" version="1.1"><rect x="0" y="0" width="960" height="540" fill="#202F4B"></rect><path d="M0 505L20 506.2C40 507.3 80 509.7 120 508.3C160 507 200 502 240 500C280 498 320 499 360 501.3C400 503.7 440 507.3 480 510C520 512.7 560 514.3 600 514.7C640 515 680 514 720 512.7C760 511.3 800 509.7 840 507C880 504.3 920 500.7 940 498.8L960 497L960 541L940 541C920 541 880 541 840 541C800 541 760 541 720 541C680 541 640 541 600 541C560 541 520 541 480 541C440 541 400 541 360 541C320 541 280 541 240 541C200 541 160 541 120 541C80 541 40 541 20 541L0 541Z" fill="#8fc4e2"></path><path d="M0 510L20 510.2C40 510.3 80 510.7 120 510.3C160 510 200 509 240 509.5C280 510 320 512 360 513.2C400 514.3 440 514.7 480 516C520 517.3 560 519.7 600 520C640 520.3 680 518.7 720 517.5C760 516.3 800 515.7 840 514.8C880 514 920 513 940 512.5L960 512L960 541L940 541C920 541 880 541 840 541C800 541 760 541 720 541C680 541 640 541 600 541C560 541 520 541 480 541C440 541 400 541 360 541C320 541 280 541 240 541C200 541 160 541 120 541C80 541 40 541 20 541L0 541Z" fill="#b3e1ee"></path><path d="M0 520L20 520.5C40 521 80 522 120 522C160 522 200 521 240 521C280 521 320 522 360 522.7C400 523.3 440 523.7 480 524.3C520 525 560 526 600 525.5C640 525 680 523 720 521.7C760 520.3 800 519.7 840 521.2C880 522.7 920 526.3 940 528.2L960 530L960 541L940 541C920 541 880 541 840 541C800 541 760 541 720 541C680 541 640 541 600 541C560 541 520 541 480 541C440 541 400 541 360 541C320 541 280 541 240 541C200 541 160 541 120 541C80 541 40 541 20 541L0 541Z" fill="#dffcfd"></path></svg>