<svg id="visual" viewBox="0 0 675 900" width="675" height="900" xmlns="http://www.w3.org/2000/svg" xmlns:xlink="http://www.w3.org/1999/xlink" version="1.1"><rect x="0" y="0" width="675" height="900" fill="#202F4B"></rect><path d="M0 708L14 716C28 724 56 740 84.2 752.8C112.3 765.7 140.7 775.3 168.8 767.8C197 760.3 225 735.7 253.2 726.2C281.3 716.7 309.7 722.3 337.8 733C366 743.7 394 759.3 422 760.8C450 762.3 478 749.7 506.2 750.7C534.3 751.7 562.7 766.3 590.8 763.8C619 761.3 647 741.7 661 731.8L675 722L675 901L661 901C647 901 619 901 590.8 901C562.7 901 534.3 901 506.2 901C478 901 450 901 422 901C394 901 366 901 337.8 901C309.7 901 281.3 901 253.2 901C225 901 197 901 168.8 901C140.7 901 112.3 901 84.2 901C56 901 28 901 14 901L0 901Z" fill="#8fc4e2"></path><path d="M0 805L14 805.5C28 806 56 807 84.2 803.5C112.3 800 140.7 792 168.8 784.5C197 777 225 770 253.2 764C281.3 758 309.7 753 337.8 756.7C366 760.3 394 772.7 422 783.8C450 795 478 805 506.2 804.3C534.3 803.7 562.7 792.3 590.8 793.8C619 795.3 647 809.7 661 816.8L675 824L675 901L661 901C647 901 619 901 590.8 901C562.7 901 534.3 901 506.2 901C478 901 450 901 422 901C394 901 366 901 337.8 901C309.7 901 281.3 901 253.2 901C225 901 197 901 168.8 901C140.7 901 112.3 901 84.2 901C56 901 28 901 14 901L0 901Z" fill="#b3e1ee"></path><path d="M0 849L14 842.8C28 836.7 56 824.3 84.2 820.5C112.3 816.7 140.7 821.3 168.8 829C197 836.7 225 847.3 253.2 848.2C281.3 849 309.7 840 337.8 833.3C366 826.7 394 822.3 422 826.5C450 830.7 478 843.3 506.2 840C534.3 836.7 562.7 817.3 590.8 812.7C619 808 647 818 661 823L675 828L675 901L661 901C647 901 619 901 590.8 901C562.7 901 534.3 901 506.2 901C478 901 450 901 422 901C394 901 366 901 337.8 901C309.7 901 281.3 901 253.2 901C225 901 197 901 168.8 901C140.7 901 112.3 901 84.2 901C56 901 28 901 14 901L0 901Z" fill="#dffcfd"></path></svg>